<svg width="26" height="26" viewBox="0 0 26 26" fill="none" xmlns="http://www.w3.org/2000/svg">
<path d="M11.4783 20.8696C9.64606 20.8751 7.87861 20.1918 6.52654 18.9552C5.17447 17.7186 4.33654 16.019 4.17894 14.1935C4.02134 12.368 4.55559 10.55 5.67572 9.09992C6.79585 7.64989 8.42004 6.67379 10.2262 6.36524C16.174 5.21741 17.7392 4.6748 19.8262 2.08698C20.8696 4.17393 21.9131 6.44871 21.9131 10.4348C21.9131 16.1739 16.9253 20.8696 11.4783 20.8696Z" stroke="#0A6D66" stroke-width="2.08696" stroke-linecap="round" stroke-linejoin="round"/>
<path d="M2.0874 21.9131C2.0874 18.7827 4.01784 16.3201 7.38827 15.6522C9.91349 15.1514 12.5222 13.5653 13.5657 12.5218" stroke="#0A6D66" stroke-width="2.08696" stroke-linecap="round" stroke-linejoin="round"/>
</svg>
